PathFileType	4	(X/Y/Z)	C:/Users/opensim2020/Desktop/walking_exp_matlab/subject03_walking11_straight_01.trc																																																																																																																																								
DataRate	CameraRate	NumFrames	NumMarkers	Units	OrigDataRate	OrigDataStartFrame	OrigNumFrames																																																																																																																																				
100	100	5	46	mm	100	747	454																																																																																																																																				
Frame#	Time	LFHD			RFHD			LBHD			RBHD			C7			T10			CLAV			STRN			RBAK			LSHO			LUPA			LELB			LFRM			LWRA			LWRB			LFIN			RSHO			RUPA			RELB			RFRM			RWRA			RWRB			RFIN			LASI			RASI			LPSI			RPSI			LTHI			LKNE			LTIB			LANK			LHEE			LTOE			RTHI			RKNE			RTIB			RANK			RHEE			RTOE			*39			*40			*41			*42			*43			*44			*45		
		X1	Y1	Z1	X2	Y2	Z2	X3	Y3	Z3	X4	Y4	Z4	X5	Y5	Z5	X6	Y6	Z6	X7	Y7	Z7	X8	Y8	Z8	X9	Y9	Z9	X10	Y10	Z10	X11	Y11	Z11	X12	Y12	Z12	X13	Y13	Z13	X14	Y14	Z14	X15	Y15	Z15	X16	Y16	Z16	X17	Y17	Z17	X18	Y18	Z18	X19	Y19	Z19	X20	Y20	Z20	X21	Y21	Z21	X22	Y22	Z22	X23	Y23	Z23	X24	Y24	Z24	X25	Y25	Z25	X26	Y26	Z26	X27	Y27	Z27	X28	Y28	Z28	X29	Y29	Z29	X30	Y30	Z30	X31	Y31	Z31	X32	Y32	Z32	X33	Y33	Z33	X34	Y34	Z34	X35	Y35	Z35	X36	Y36	Z36	X37	Y37	Z37	X38	Y38	Z38	X39	Y39	Z39	X40	Y40	Z40	X41	Y41	Z41	X42	Y42	Z42	X43	Y43	Z43	X44	Y44	Z44	X45	Y45	Z45	X46	Y46	Z46
																																																																																																																																											
114	1.13	-789.03296	1627.71509	1344.69397	-787.39996	1635.51282	1477.87231	-913.08905	1572.92615	1353.1947	-906.37024	1580.70276	1483.90784	-929.73047	1420.82532	1414.76221	-967.86218	1110.56384	1418.73071	-808.01813	1343.63818	1411.13562	-767.08856	1177.4906	1407.71375	-980.47131	1250.09473	1516.2677	-860.30457	1379.65234	1256.5426	-891.69562	1181.44495	1192.08569	-899.41919	1057.92969	1183.89514	-887.18744	927.78918	1185.52966	-881.93671	807.5152	1218.09619	-905.46417	815.97571	1166.99304	-904.24756	730.32544	1180.10596	-846.04633	1371.48315	1571.58728	-834.85284	1151.21106	1647.8606	-812.50604	1039.82861	1658.45471	-785.06879	905.73633	1655.44934	-756.88898	812.5	1611.26965	-775.18329	806.16498	1661.92578	-750.93414	736.31244	1644.86633	-809.34344	946.13306	1298.21191	-809.94446	935.59711	1534.36743	-970.86407	973.79004	1346.47791	-968.19891	976.69098	1496.48694	-847.62	646.19336	1255.72827	-818.18695	471.1315	1297.68701	-840.90442	278.87741	1293.34265	-823.02252	69.51057	1331.36597	-861.42401	35.45773	1368.7644	-668.68323	36.25425	1346.97083	-893.78467	644.76215	1587.98303	-897.43579	463.38028	1570.15112	-1031.2854	321.86514	1579.81677	-1168.86023	151.34233	1541.68604	-1223.06201	153.08142	1492.64551	-1083.8009	36.26552	1505.12854	-874.85663	1683.51685	1396.23145	NaN	NaN	NaN	NaN	NaN	NaN	NaN	NaN	NaN	NaN	NaN	NaN	NaN	NaN	NaN	NaN	NaN	NaN
115	1.14	-783.07599	1627.64368	1342.60632	-781.62988	1635.70264	1475.78845	-906.80719	1572.86755	1351.03101	-900.21576	1580.78699	1481.62866	-923.53729	1420.85706	1412.65662	-961.36078	1110.37756	1416.59253	-801.89215	1343.7085	1409.50696	-760.50995	1177.72119	1406.40417	-974.60004	1249.6333	1513.71924	-853.71924	1379.40515	1254.72327	-883.53033	1181.12207	1189.9425	-890.42004	1057.47351	1181.39844	-876.75226	927.4881	1183.72009	-870.61377	807.29663	1216.26111	-893.64264	815.45398	1164.85205	-891.24799	729.94061	1177.99768	-840.88647	1371.58252	1569.85974	-830.11517	1151.33997	1646.42908	-808.08752	1039.90527	1657.32263	-780.63696	905.82758	1654.47705	-752.30817	812.56207	1610.38269	-770.70123	806.30347	1660.91614	-746.60333	736.27417	1643.65723	-802.84479	946.00232	1296.62195	-803.83911	935.54315	1532.75952	-964.37439	974.27734	1344.71631	-962.19293	976.43024	1494.6626	-842.78253	646.48962	1254.3197	-814.69769	471.15231	1296.52332	-839.0141	278.8363	1292.51001	-823.10431	69.45134	1331.3302	-861.42474	35.43972	1368.68152	-668.76642	36.03201	1346.92834	-883.57526	643.81525	1587.48511	-884.10938	462.42853	1569.83337	-1019.25269	322.95023	1579.69641	-1160.53345	155.85983	1542.3269	-1214.64209	159.80272	1493.21948	-1081.96985	36.79569	1505.46326	NaN	NaN	NaN	NaN	NaN	NaN	NaN	NaN	NaN	NaN	NaN	NaN	NaN	NaN	NaN	NaN	NaN	NaN	NaN	NaN	NaN
116	1.15	-776.93329	1627.6803	1340.65479	-775.80914	1635.88708	1473.84045	-900.83069	1572.74744	1348.9729	-894.43555	1580.87366	1479.60144	-918.02222	1421.01367	1410.65625	-954.8877	1110.14319	1414.48999	-795.89075	1343.69617	1407.98706	-754.23517	1177.67981	1405.03589	-968.87683	1249.18103	1511.24866	-847.08746	1378.99902	1252.9021	-875.54102	1180.6864	1187.67908	-881.19702	1057.07288	1178.90735	-866.19739	927.08008	1181.54309	-858.82062	807.29523	1214.328	-881.53857	814.8913	1162.73181	-877.83984	729.5155	1175.90857	-835.66656	1371.51465	1568.26111	-825.59253	1151.36145	1645.07532	-803.59894	1039.86938	1656.23145	-776.10901	905.81873	1653.52197	-747.5036	812.65271	1609.44373	-766.19019	806.27692	1659.9126	-741.95465	736.32483	1642.73181	-796.38043	945.83838	1295.23474	-797.86456	935.41492	1531.34631	-957.96149	974.67041	1343.09204	-956.34558	976.11371	1492.96521	-838.29517	646.92682	1253.49866	-811.2627	471.23163	1295.21484	-837.28491	278.89853	1291.60486	-823.05066	69.41372	1331.24414	-861.49658	35.40094	1368.6062	-668.77228	36.01907	1346.86938	-873.66034	642.94629	1586.91187	-870.5423	461.5896	1569.15613	-1006.64435	323.70282	1579.45349	-1151.40735	160.01147	1542.7323	-1205.49573	166.27525	1493.71594	-1079.43213	37.40202	1506.03687	NaN	NaN	NaN	NaN	NaN	NaN	NaN	NaN	NaN	NaN	NaN	NaN	NaN	NaN	NaN	NaN	NaN	NaN	NaN	NaN	NaN
117	1.16	-770.92566	1627.53516	1338.71973	-770.22766	1635.94153	1471.8573	-894.79718	1572.56494	1347.00293	-888.64545	1580.94226	1477.66138	-911.52991	1420.66711	1408.59216	-948.63373	1109.98804	1412.5658	-789.89172	1343.70959	1406.604	-747.87439	1177.83252	1403.92444	-963.3255	1248.71887	1508.74207	-840.57471	1378.53394	1251.21606	-867.1673	1180.06897	1185.55261	-871.61444	1056.39319	1176.73218	-855.44031	926.74408	1179.43701	-847.1153	806.99316	1212.42737	-869.0589	814.2691	1160.81689	-864.00891	729.19788	1173.73169	-830.26349	1371.35876	1566.87708	-821.08575	1151.29724	1643.73438	-799.10724	1039.80908	1655.1897	-771.6062	905.75891	1652.59106	-742.80475	812.57037	1608.54407	-761.64343	806.23322	1658.91248	-737.17352	736.42578	1641.96191	-789.93042	945.75024	1293.86829	-792.1214	935.20978	1530.1427	-951.66022	975.01691	1341.51855	-950.58795	975.69214	1491.39868	-833.41626	647.15881	1252.23474	-807.9729	471.29959	1293.9386	-835.54181	278.92438	1290.67859	-823.14008	69.47607	1331.1051	-861.54016	35.34162	1368.49805	-668.92603	35.88028	1347.13062	-863.09143	641.98053	1585.46057	-857.0257	460.83005	1568.14807	-993.64667	324.19684	1579.08777	-1141.82654	164.04178	1542.84351	-1196.04053	172.15399	1493.97925	-1074.80994	39.18004	1507.03223	NaN	NaN	NaN	NaN	NaN	NaN	NaN	NaN	NaN	NaN	NaN	NaN	NaN	NaN	NaN	NaN	NaN	NaN	NaN	NaN	NaN
118	1.17	-765.00934	1627.39795	1336.87109	-764.35907	1636.14221	1470.16162	-888.73877	1572.38	1345.06274	-882.85065	1580.97534	1475.67126	-905.69275	1420.64392	1406.63708	-942.61658	1109.90466	1410.78711	-783.99078	1343.62891	1405.25464	-741.86896	1177.74878	1402.90967	-957.99652	1248.52002	1506.30798	-834.07056	1378.20349	1249.59888	-858.95258	1179.62305	1183.50427	-862.61768	1055.93738	1174.27026	-844.35962	926.42163	1177.38501	-834.50006	807.33038	1210.96802	-856.52216	813.84888	1158.62085	-849.8454	729.02045	1171.49072	-825.29022	1371.30969	1565.44141	-816.69525	1151.31042	1642.52234	-794.73309	1039.68567	1654.09094	-767.1449	905.68359	1651.5575	-738.00232	812.5	1607.66541	-757.07758	806.20984	1657.93982	-732.27826	736.51672	1641.15369	-783.78491	945.91956	1292.86353	-786.50159	935.01514	1529.07776	-945.75275	975.42847	1340.17627	-944.9505	975.17346	1489.89893	-828.4397	647.47955	1250.99634	-804.62958	471.32156	1292.74097	-833.38531	278.99808	1289.90979	-823.28217	69.441	1331.02563	-861.63776	35.31271	1368.35413	-668.86597	35.87514	1347.07727	-853.35492	641.29187	1584.23511	-843.6709	460.29456	1566.89221	-980.66815	324.75726	1578.46826	-1132.43359	168.17345	1542.76782	-1186.5177	176.72682	1493.50684	-1066.72876	42.18605	1508.84985	-851.39478	1683.62805	1387.73474	NaN	NaN	NaN	NaN	NaN	NaN	NaN	NaN	NaN	NaN	NaN	NaN	NaN	NaN	NaN	NaN	NaN	NaN
